<?xml version="1.0" encoding="UTF-8"?>
<svg id="Capa_1" data-name="Capa 1" xmlns="http://www.w3.org/2000/svg" version="1.1" viewBox="0 0 441 168">
  <defs>
    <style>
      .cls-1 {
        fill: #464751;
        stroke-width: 0px;
      }
    </style>
  </defs>
  <path class="cls-1" d="M435.7,52c0-26-16.4-44.2-44.1-44.2s-24,5.4-31.5,14c-7.1-8.7-18.1-14-31.5-14-27.1,0-44.6,19-44.6,44.2v44.9s0,0,0,.1c0,7,5.7,12.7,12.7,12.7s12.7-5.7,12.7-12.7h0c0-.1,0-.1,0-.1v-45.5c0-11.2,7.9-18.9,19.2-18.9,16.7,0,18.5,13.3,18.5,18.9v45.4c0,0,0,.1,0,.2,0,7,5.7,12.7,12.7,12.7s12.7-5.7,12.7-12.7,0,0,0-.1h0v-45.5c0-11.2,8.1-18.9,19.2-18.9,16.7,0,18.7,13.3,18.7,18.9v45.3c0,.1,0,.2,0,.3,0,7,5.7,12.7,12.7,12.7s12.7-5.7,12.7-12.7,0,0,0-.1h0v-45h0ZM112.7,7.7c-12.9,0-24,5.4-31.6,14-7.1-8.7-18.1-14-31.6-14C22.5,7.7,5,26.8,5,52v45h0c0,7.1,5.7,12.8,12.7,12.8s12.7-5.7,12.7-12.7h0c0-.1,0-.1,0-.1v-45.5c0-11.2,7.9-18.9,19.2-18.9,16.7,0,18.5,13.3,18.5,18.9v45.5s0,0,0,.1c0,7,5.7,12.7,12.7,12.7s12.7-5.7,12.7-12.7h0c0-.1,0-.1,0-.1v-45.5c0-11.2,8.1-18.9,19.2-18.9,16.7,0,18.7,13.3,18.7,18.9v45.5s0,.1,0,.2c0,7,5.7,12.7,12.7,12.7s12.7-5.7,12.7-12.7,0,0,0-.1h0v-45c0-26-16.4-44.2-44.1-44.2h0ZM262.6,28.1v-4.9c0-.1,0-.2,0-.3,0-7-5.7-12.7-12.7-12.7s-12.7,5.7-12.7,12.7h0s0,0,0,0v6.5c0,11.2-6.9,18.9-16.9,18.9s-16.7-7.7-16.7-18.9v-6.3c0,0,0-.1,0-.2,0-7-5.7-12.7-12.7-12.7s-12.7,5.7-12.7,12.7h0s0,0,0,0v5.2c0,13.7,4.6,24.4,12.7,31.6-8.1,7.1-12.7,17.9-12.7,31.5v5.7h0s0,0,0,.1c0,7,5.7,12.7,12.7,12.7s12.7-5.7,12.7-12.7,0-.1,0-.2v-6.9c0-11.2,6.9-18.9,16.7-18.9s16.9,7.7,16.9,18.9v7.1h0c0,7.1,5.7,12.8,12.7,12.8s12.7-5.7,12.7-12.7,0-.2,0-.3v-5.5c0-13.3-5.2-24.2-13.6-31.5,8.5-7.3,13.6-18.1,13.6-31.6h0Z"/>
  <path class="cls-1" d="M220.4,24.7c-3.1,0-5.6,2.5-5.6,5.6s2.5,5.6,5.6,5.6,5.6-2.5,5.6-5.6-2.5-5.6-5.6-5.6h0ZM220.4,42.1c-6.5,0-11.7-5.3-11.7-11.7s5.3-11.7,11.7-11.7,11.7,5.3,11.7,11.7-5.3,11.7-11.7,11.7h0Z"/>
  <path class="cls-1" d="M9.6,125.1c0,1.2-.9,2.1-2.1,2.1s-2.1-1-2.1-2.1,1-2.1,2.1-2.1,2.1,1,2.1,2.1h0Z"/>
  <path class="cls-1" d="M21.4,125.1c0,1.2-.9,2.1-2.1,2.1s-2.1-1-2.1-2.1,1-2.1,2.1-2.1,2.1,1,2.1,2.1h0Z"/>
  <path class="cls-1" d="M33.3,125.1c0,1.2-.9,2.1-2.1,2.1s-2.1-1-2.1-2.1,1-2.1,2.1-2.1,2.1,1,2.1,2.1h0Z"/>
  <path class="cls-1" d="M45.1,125.1c0,1.2-.9,2.1-2.1,2.1s-2.1-1-2.1-2.1.9-2.1,2.1-2.1,2.1,1,2.1,2.1h0Z"/>
  <path class="cls-1" d="M57,125.1c0,1.2-.9,2.1-2.1,2.1s-2.1-1-2.1-2.1,1-2.1,2.1-2.1,2.1,1,2.1,2.1h0Z"/>
  <path class="cls-1" d="M68.8,125.1c0,1.2-.9,2.1-2.1,2.1s-2.1-1-2.1-2.1,1-2.1,2.1-2.1,2.1,1,2.1,2.1h0Z"/>
  <path class="cls-1" d="M80.7,125.1c0,1.2-.9,2.1-2.1,2.1s-2.1-1-2.1-2.1.9-2.1,2.1-2.1,2.1,1,2.1,2.1h0Z"/>
  <path class="cls-1" d="M92.5,125.1c0,1.2-.9,2.1-2.1,2.1s-2.1-1-2.1-2.1,1-2.1,2.1-2.1,2.1,1,2.1,2.1h0Z"/>
  <path class="cls-1" d="M104.4,125.1c0,1.2-.9,2.1-2.1,2.1s-2.1-1-2.1-2.1,1-2.1,2.1-2.1,2.1,1,2.1,2.1h0Z"/>
  <path class="cls-1" d="M116.2,125.1c0,1.2-.9,2.1-2.1,2.1s-2.1-1-2.1-2.1.9-2.1,2.1-2.1,2.1,1,2.1,2.1h0Z"/>
  <path class="cls-1" d="M128,125.1c0,1.2-.9,2.1-2.1,2.1s-2.1-1-2.1-2.1.9-2.1,2.1-2.1,2.1,1,2.1,2.1h0Z"/>
  <path class="cls-1" d="M139.9,125.1c0,1.2-.9,2.1-2.1,2.1s-2.1-1-2.1-2.1,1-2.1,2.1-2.1,2.1,1,2.1,2.1h0Z"/>
  <path class="cls-1" d="M151.7,125.1c0,1.2-1,2.1-2.1,2.1s-2.1-1-2.1-2.1,1-2.1,2.1-2.1,2.1,1,2.1,2.1h0Z"/>
  <path class="cls-1" d="M163.6,125.1c0,1.2-.9,2.1-2.1,2.1s-2.1-1-2.1-2.1,1-2.1,2.1-2.1,2.1,1,2.1,2.1h0Z"/>
  <path class="cls-1" d="M175.4,125.1c0,1.2-.9,2.1-2.1,2.1s-2.1-1-2.1-2.1,1-2.1,2.1-2.1,2.1,1,2.1,2.1h0Z"/>
  <path class="cls-1" d="M187.3,125.1c0,1.2-.9,2.1-2.1,2.1s-2.1-1-2.1-2.1,1-2.1,2.1-2.1,2.1,1,2.1,2.1h0Z"/>
  <path class="cls-1" d="M199.1,125.1c0,1.2-1,2.1-2.1,2.1s-2.1-1-2.1-2.1,1-2.1,2.1-2.1,2.1,1,2.1,2.1h0Z"/>
  <path class="cls-1" d="M211,125.1c0,1.2-1,2.1-2.1,2.1s-2.1-1-2.1-2.1,1-2.1,2.1-2.1,2.1,1,2.1,2.1h0Z"/>
  <path class="cls-1" d="M222.8,125.1c0,1.2-1,2.1-2.1,2.1s-2.1-1-2.1-2.1,1-2.1,2.1-2.1,2.1,1,2.1,2.1h0Z"/>
  <path class="cls-1" d="M234.6,125.1c0,1.2-1,2.1-2.1,2.1s-2.1-1-2.1-2.1,1-2.1,2.1-2.1,2.1,1,2.1,2.1h0Z"/>
  <path class="cls-1" d="M246.5,125.1c0,1.2-1,2.1-2.1,2.1s-2.1-1-2.1-2.1,1-2.1,2.1-2.1,2.1,1,2.1,2.1h0Z"/>
  <path class="cls-1" d="M258.3,125.1c0,1.2-1,2.1-2.1,2.1s-2.1-1-2.1-2.1,1-2.1,2.1-2.1,2.1,1,2.1,2.1h0Z"/>
  <path class="cls-1" d="M270.2,125.1c0,1.2-1,2.1-2.1,2.1s-2.1-1-2.1-2.1,1-2.1,2.1-2.1,2.1,1,2.1,2.1h0Z"/>
  <path class="cls-1" d="M282,125.1c0,1.2-1,2.1-2.1,2.1s-2.1-1-2.1-2.1,1-2.1,2.1-2.1,2.1,1,2.1,2.1h0Z"/>
  <path class="cls-1" d="M293.9,125.1c0,1.2-1,2.1-2.1,2.1s-2.1-1-2.1-2.1,1-2.1,2.1-2.1,2.1,1,2.1,2.1h0Z"/>
  <path class="cls-1" d="M305.7,125.1c0,1.2-1,2.1-2.1,2.1s-2.1-1-2.1-2.1,1-2.1,2.1-2.1,2.1,1,2.1,2.1h0Z"/>
  <path class="cls-1" d="M317.5,125.1c0,1.2-1,2.1-2.1,2.1s-2.1-1-2.1-2.1,1-2.1,2.1-2.1,2.1,1,2.1,2.1h0Z"/>
  <path class="cls-1" d="M329.4,125.1c0,1.2-1,2.1-2.1,2.1s-2.1-1-2.1-2.1,1-2.1,2.1-2.1,2.1,1,2.1,2.1h0Z"/>
  <path class="cls-1" d="M341.2,125.1c0,1.2-1,2.1-2.1,2.1s-2.1-1-2.1-2.1,1-2.1,2.1-2.1,2.1,1,2.1,2.1h0Z"/>
  <path class="cls-1" d="M353.1,125.1c0,1.2-1,2.1-2.1,2.1s-2.1-1-2.1-2.1,1-2.1,2.1-2.1,2.1,1,2.1,2.1h0Z"/>
  <path class="cls-1" d="M364.9,125.1c0,1.2-1,2.1-2.1,2.1s-2.1-1-2.1-2.1,1-2.1,2.1-2.1,2.1,1,2.1,2.1h0Z"/>
  <path class="cls-1" d="M376.8,125.1c0,1.2-1,2.1-2.1,2.1s-2.1-1-2.1-2.1,1-2.1,2.1-2.1,2.1,1,2.1,2.1h0Z"/>
  <path class="cls-1" d="M388.6,125.1c0,1.2-1,2.1-2.1,2.1s-2.1-1-2.1-2.1,1-2.1,2.1-2.1,2.1,1,2.1,2.1h0Z"/>
  <path class="cls-1" d="M400.4,125.1c0,1.2-1,2.1-2.1,2.1s-2.1-1-2.1-2.1,1-2.1,2.1-2.1,2.1,1,2.1,2.1h0Z"/>
  <path class="cls-1" d="M412.3,125.1c0,1.2-1,2.1-2.1,2.1s-2.1-1-2.1-2.1,1-2.1,2.1-2.1,2.1,1,2.1,2.1h0Z"/>
  <path class="cls-1" d="M424.1,125.1c0,1.2-1,2.1-2.1,2.1s-2.1-1-2.1-2.1,1-2.1,2.1-2.1,2.1,1,2.1,2.1h0Z"/>
  <path class="cls-1" d="M436,125.1c0,1.2-1,2.1-2.1,2.1s-2.1-1-2.1-2.1,1-2.1,2.1-2.1,2.1,1,2.1,2.1h0Z"/>
  <path class="cls-1" d="M31.7,162.8h-2.5v-14.5c0-2.5-1.9-4.6-4.5-4.6s-4.5,2.1-4.5,4.6v14.5h-2.6v-14.5c0-2.5-1.9-4.6-4.5-4.6s-4.5,2.1-4.5,4.6v14.5h-2.6v-14.5c0-3.9,3.1-7.1,7.1-7.1s4.6,1.3,5.8,3.2c1.2-1.9,3.3-3.2,5.8-3.2,4,0,7.1,3.1,7.1,7.1v14.5h0Z"/>
  <path class="cls-1" d="M54.4,139.6h-2l2.6-4.1h3.2l-3.8,4.1h0ZM58.1,148.7c0-2.7-2-5-4.8-5s-4.8,2.2-4.8,5v3.8h9.7v-3.8h0ZM60.7,162.8h-2.6v-7.8h-9.7v7.8h-2.6v-14.1c0-4.2,3.2-7.4,7.4-7.4s7.4,3.2,7.4,7.4v14.1h0Z"/>
  <path class="cls-1" d="M89.4,141.8v4.3c0,2.6-1.2,4.9-3.1,6.2,1.9,1.3,3.1,3.6,3.1,6.2v4.3h-2.5v-4.3c0-2.7-1.8-4.9-4.8-4.9s-4.8,2.2-4.8,4.9v4.3h-2.6v-4.3c0-2.6,1.2-4.9,3.1-6.2-1.9-1.3-3.1-3.6-3.1-6.2v-4.3h2.6v4.3c0,2.7,1.9,4.9,4.8,4.9s4.8-2.2,4.8-4.9v-4.3h2.5Z"/>
  <polygon class="cls-1" points="106.3 162.8 103.8 162.8 103.8 141.8 106.3 141.8 106.3 162.8 106.3 162.8"/>
  <path class="cls-1" d="M146.6,162.8h-2.5v-14.5c0-2.5-1.9-4.6-4.5-4.6s-4.5,2.1-4.5,4.6v14.5h-2.6v-14.5c0-2.5-1.9-4.6-4.5-4.6s-4.5,2.1-4.5,4.6v14.5h-2.6v-14.5c0-3.9,3.1-7.1,7.1-7.1s4.6,1.3,5.8,3.2c1.2-1.9,3.3-3.2,5.8-3.2,4,0,7.1,3.1,7.1,7.1v14.5h0Z"/>
  <path class="cls-1" d="M173,148.7c0-2.7-2-5-4.9-5s-4.9,2.2-4.9,5v3.8h9.7v-3.8h0ZM175.5,162.8h-2.6v-7.8h-9.7v7.8h-2.6v-14.1c0-4.2,3.1-7.4,7.4-7.4s7.4,3.2,7.4,7.4v14.1h0Z"/>
  <path class="cls-1" d="M223,148.6v14.2h-2.6v-14.2c0-2.8-2.2-4.9-4.9-4.9s-4.9,2.1-4.9,4.9v14.2h-2.6v-14.2c0-4.2,3.2-7.4,7.4-7.4s7.4,3.2,7.4,7.4h0Z"/>
  <path class="cls-1" d="M245,160.7c3.5,0,5.5-2.3,5.5-5.4v-13.5h2.6v13.5c0,4.7-3.3,7.9-8.1,7.9s-8.1-3.2-8.1-7.9v-13.5h2.5v13.5c0,3.1,2,5.4,5.5,5.4h0Z"/>
  <polygon class="cls-1" points="274.6 144.2 274.6 162.8 272 162.8 272 144.2 265.4 144.2 265.4 141.8 281.2 141.8 281.2 144.2 274.6 144.2 274.6 144.2"/>
  <path class="cls-1" d="M305,148.1c0-2.4-2-4.4-4.8-4.4s-4.8,2-4.8,5v3.8h4.9c3.1,0,4.6-1.8,4.6-4.4h0ZM307.1,157v5.8h-2.6v-5.6c0-1.2-.7-2.2-2.3-2.2h-6.9v7.8h-2.6v-14.1c0-4.3,3.1-7.4,7.3-7.4s7.4,3,7.4,6.8-.9,4.2-2.5,5.3c1.3.7,2.1,2,2.1,3.6h0Z"/>
  <polygon class="cls-1" points="324 162.8 321.5 162.8 321.5 141.8 324 141.8 324 162.8 324 162.8"/>
  <path class="cls-1" d="M347.9,163.2c-5.8,0-10.4-4.9-10.4-11s4.7-10.9,10.4-10.9,8.3,2.9,9.6,7h-2.7c-1.1-2.6-3.5-4.5-6.9-4.5s-7.9,3.9-7.9,8.5,3.5,8.5,7.9,8.5,5.7-1.8,6.9-4.5h2.7c-1.4,4.3-5.1,7-9.6,7h0Z"/>
  <polygon class="cls-1" points="373.2 162.8 370.6 162.8 370.6 141.8 373.2 141.8 373.2 162.8 373.2 162.8"/>
  <path class="cls-1" d="M398.3,139.6h-2l2.6-4.1h3.1l-3.8,4.1h0ZM405,152.2c0-4.9-3.5-8.5-7.9-8.5s-7.9,3.7-7.9,8.5,3.5,8.5,7.9,8.5,7.9-3.7,7.9-8.5h0ZM407.5,152.2c0,6.1-4.7,11-10.4,11s-10.4-4.8-10.4-11,4.7-10.9,10.4-10.9,10.4,4.7,10.4,10.9h0Z"/>
  <path class="cls-1" d="M435.5,148.6v14.2h-2.6v-14.2c0-2.8-2.2-4.9-4.9-4.9s-4.9,2.1-4.9,4.9v14.2h-2.6v-14.2c0-4.2,3.2-7.4,7.4-7.4s7.4,3.2,7.4,7.4h0Z"/>
</svg>